<?xml version="1.0" encoding="UTF-8"?><!DOCTYPE svg PUBLIC "-//W3C//DTD SVG 1.1//EN" "http://www.w3.org/Graphics/SVG/1.1/DTD/svg11.dtd"><svg xmlns="http://www.w3.org/2000/svg" xmlns:xlink="http://www.w3.org/1999/xlink"><symbol viewBox="0 0 911.163 375.971" id="boat"><path d="M402.063 0l-13.387 48.81h-12.89v16.803H261.972v-.52H148.215v39.06h-.81l-30.167 155.32H0l67.41 71.76 98.254 44.736h734.54v-26.263H873.84l37.324-90.234h-63.277L770.293 117.62H261.918 632.78l-21.647-52.007H483.527V48.81h-14.12V0zm0 0"/></symbol><symbol viewBox="0 0 524.66 389.536" id="chateau"><defs><clipPath id="ba"><path d="M0 0h524.66v389.535H0zm0 0"/></clipPath><clipPath id="bb"><path d="M220.18 0l-36.668 66-6.668-40.668-6 43.332V126l-11.082 4.75-.133 4.148-8.118 6.434-12-20.668-15 22.668V201a246.75 246.75 0 0 0-31 13.5c-13.996 7.273-23.664 14.004-31.5 19.5-17.543 12.305-33.27 23.508-48.5 42.5A170.112 170.112 0 0 0 0 296a766.838 766.838 0 0 0 164.016 66.156c19.925 5.465 46.632 11.922 77.964 17.043 43.633 7.132 87.942 10.323 128.165 10.335h.652c84.426-.04 150.594-14.082 153.85-35.004a1.01 1.01 0 0 0 .013-.163v-.043c-.03-2.41-5.015-13.312-14.68-34.457-7.628-16.695-11.445-25.043-16-33.332-6.19-11.277-13.453-24.336-26-39.336a202.496 202.496 0 0 0-25.332-25.333c-5.097-4.262-10.808-8.996-19.336-14-8.472-4.976-15.468-7.726-21.332-10a182.888 182.888 0 0 0-25.8-7.867v-76l-3.684 1.25L358.512 85l-13.332 30-3.336-1.336v11.004h-3v-60l-6-39.336L326.18 64l-38-64zm0 0"/></clipPath></defs><g clip-path="url(#bb)"><path d="M0 0v389.535h524.66V0zm0 0" fill="#00daf2"/></g></symbol><symbol viewBox="0 0 591.96002 179.16" id="eventbrite"><defs><clipPath id="ca"><path d="M0 1343.67V0h4439.73v1343.67z"/></clipPath></defs><g clip-path="url(#ca)" transform="matrix(.13333 0 0 -.13333 0 179.16)"><path d="M161.54 43.34c-58.032.52-121.446 64.172-121.446 122.16L40 1185.48c0 57.68 63.148 121 120.94 121.52l3871.56-154.2c65.59-2.6 117.36-54.95 117.36-116.68V314.18c0-61.65-51.78-114.008-117.38-116.71L161.54 43.34" fill="#fff"/><path d="M3825.15 730.016c-58.76 0-107.23-40.496-130.22-93.727 20.62-1.57 38.91-2.368 55.58-2.368 108.02 0 138.2 24.605 138.2 54.805 0 20.632-21.45 41.29-63.56 41.29zm-1314.31-13.508c-41.28 0-78.61-24.602-102.44-60.344l-11.94-55.62c-11.9-61.923 21.47-113.548 87.39-113.548 70.67 0 109.59 68.29 109.59 138.184 0 56.38-35.73 91.328-82.6 91.328zM3760.02 564.8c-23.81 0-50.02 1.587-79.41 3.204v-2.414c0-53.98 33.36-87.352 94.5-87.352 51.62 0 88.97 23.055 114.39 56.422 1.57 2.375 47.64-5.61 47.64-42.12 0-20.634-6.33-31.767-21.44-47.645-29.39-28.594-75.46-46.063-142.16-46.063-127.07 0-187.43 69.883-187.43 165.188 0 140.566 108.02 241.445 243.82 241.445 98.47 0 153.28-46.063 153.28-113.56 0-79.448-50.82-127.104-223.19-127.104zm-227.93 143.77h-72.32l-34.13-158.847c-10.33-46.848 5.58-66.688 36.52-66.688 19.88 0 37.35 10.317 47.65 19.84 3.18 2.38 18.29-10.336 18.29-34.16 0-16.672-6.36-30.97-19.08-43.684-17.45-17.464-45.26-27.01-82.59-27.01-88.94 0-129.47 53.23-109.6 146.957l34.15 163.593h-19.06c-25.42 0-40.49 11.118-40.49 29.387 0 11.117 4.74 34.96 15.86 46.883 7.96 7.13 16.69 11.098 38.92 11.098h23.03l4.78 22.214c11.12 57.215 34.12 81.036 83.38 81.036 23.86 0 42.11-9.524 41.31-13.497l-19.05-89.752h65.1c27.03 0 42.11-11.91 42.11-29.41 0-11.106-4.76-35.723-16.67-46.84-7.19-7.16-16.71-11.118-38.11-11.118zm-314.87 146.594c-39.72 0-61.94 19.87-61.94 48.47 0 38.132 26.18 65.132 65.13 65.132 39.71 0 61.93-19.875 61.93-48.45 0-37.328-26.19-65.152-65.12-65.152zm19.4-110.06l-51.63-240.643c-8.76-42.894-1.6-59.565 30.96-64.315.79-.793-5.56-39.727-65.13-39.727-72.27 0-90.53 44.477-77.05 107.187l50.83 237.5c8.77 40.528 23.06 53.99 51.63 53.99h11.92c30.18 0 57.19-11.88 48.47-53.99zm-218.47-65.13c-11.1 11.932-26.97 23.03-53.99 23.03-50.04 0-81.79-55.574-99.27-137.414l-22.26-107.192c-8.73-39.703-22.98-53.23-51.63-53.23h-11.88c-30.19 0-57.19 11.922-48.46 53.23l70.67 333.57c.82 2.395 13.52 7.126 31 7.126 31.75 0 62.73-17.453 61.95-68.29 23.83 46.844 59.53 74.66 104.82 74.66 38.92 0 69.1-22.24 69.1-54.784 0-54.825-48.42-72.278-50.05-70.707zM2499.74 398.83c-57.21 0-107.25 27.785-131.06 75.45-15.09-50.044-39.69-69.114-83.37-69.114-21.45 0-39.74 9.547-38.95 13.527l104.53 495.243c8.73 40.53 23.03 54.01 51.63 54.01h12.71c29.36 0 57.19-12.69 47.63-54.01l-36.2-172.805c28.6 39.715 69.87 64.332 123.1 64.332 83.39 0 152.47-59.57 152.47-165.977 0-122.316-80.17-240.656-202.49-240.656zm-294.7 309.738h-72.28l-34.14-158.847c-10.32-46.848 5.57-66.688 36.52-66.688 19.88 0 37.33 10.317 47.67 19.84 3.16 2.38 18.25-10.336 18.25-34.16 0-16.672-6.35-30.97-19.04-43.684-17.47-17.464-45.3-27.01-82.61-27.01-88.95 0-129.44 53.23-109.58 146.957l34.13 163.593h-19.04c-25.44 0-40.53 11.118-40.53 29.387 0 11.117 4.79 34.96 15.88 46.883 7.95 7.13 16.69 11.098 38.95 11.098h23.02l4.76 22.214c11.12 57.215 34.15 81.036 83.37 81.036 23.86 0 42.1-9.524 41.33-13.497l-19.06-89.752h65.13c26.99 0 42.1-11.91 42.1-29.41 0-11.106-4.79-35.723-16.71-46.84-7.15-7.16-16.67-11.118-38.12-11.118zm-308.98-262.093c1.6 0-6.34-46.06-67.5-46.06-52.41 0-77.04 26.99-77.04 69.114 0 22.216 7.13 51.603 19.06 95.27 10.33 36.536 17.5 66.76 17.5 83.423 0 39.69-22.28 63.51-62.76 63.51-38.91 0-64.34-18.245-88.95-56.385l-41.31-196.95c-8.73-39.703-23.03-53.23-51.62-53.23h-11.89c-30.21 0-57.2 11.922-48.45 53.23l70.67 333.57c.79 2.395 13.5 7.126 30.98 7.126 31.75 0 62.72-17.453 61.93-69.078 30.97 46.85 76.25 75.45 133.42 75.45 79.43 0 125.51-51.626 125.51-125.493 0-27.805-9.55-65.91-23.06-113.586-10.3-38.9-18.27-69.867-18.27-85.75 0-22.24 10.33-30.992 31.78-34.16zM1243.98 564.8c-23.84 0-50.03 1.587-79.44 3.204v-2.414c0-53.98 33.38-87.352 94.52-87.352 51.62 0 88.96 23.055 114.36 56.422 1.58 2.375 47.65-5.61 47.65-42.12 0-20.634-6.34-31.767-21.42-47.645-29.41-28.594-75.47-46.063-142.17-46.063-127.08 0-187.45 69.883-187.45 165.188 0 140.566 108.03 241.445 243.83 241.445 98.48 0 153.28-46.063 153.28-113.56 0-79.448-50.83-127.104-223.16-127.104zm-212.55 124.72L867.824 437.746c-18.265-28.598-48.445-33.367-69.89-33.367-28.598 0-57.973 10.335-61.946 41.308l-31.76 220.78c-7.958 60.368-18.017 84.055-49.787 86.423-1.588 0 12.337 49.407 61.693 49.407 23.828 0 40.508-6.36 55.594-21.45 21.45-21.445 30.984-56.398 34.953-109.593l14.29-144.56 157.245 274.822c.79 1.57 77.055-2.422 77.055-54.828 0-17.454-6.37-30.97-23.84-57.168zm-485.38 52.26c30.173 0 46.06-12.718 46.06-32.546 0-11.922-5.548-38.13-17.477-50.832-7.95-7.93-18.27-12.71-42.094-12.71H363.034l-28.05-135.665h231.91c32.578 0 49.234-12.715 49.234-34.164 0-13.504-6.337-41.285-19.036-54.79-8.746-8.757-19.89-12.714-45.282-12.714h-280.37c-48.454 0-69.876 24.66-58.766 74.675l89.53 425.36c8.735 41.29 34.15 60.347 73.052 60.347h283.55c32.563 0 50.04-12.703 50.04-34.918 0-12.715-7.16-41.29-19.88-54.012-8.726-9.535-19.042-12.714-45.26-12.714H411.01L383.695 741.78zm3489.62 447.66L161.656 1343.67C81.098 1343.67 0 1261.68 0 1182.14L.094 162.16C.094 81.078 81.714 0 162.254 0L4035.7 154.172c86.77 3.566 157.32 73.84 157.32 156.68v721.938c0 82.88-70.55 153.2-157.35 156.65zM1309.1 730.016c-58.77 0-107.21-40.496-130.25-93.727 20.66-1.57 38.9-2.368 55.59-2.368 108.03 0 138.18 24.605 138.18 54.805 0 20.632-21.43 41.29-63.52 41.29M4340.85 1108h20.01c11.77 0 18.29 5.5 18.29 14.27 0 9.76-6.77 14.27-19.04 14.27h-19.26zm33.04-40.06l-22.04 27.54h-10.76v-26.05c0-4.24-2.26-7.01-6.5-7.01h-2.02c-4.24 0-6.5 3.02-6.5 8.01v70.36c0 5.24 3.26 8.5 8.01 8.5h26.54c21.52 0 33.55-8.76 33.55-26.78 0-15.02-9.52-24.54-26.05-26.03l24.3-27.8c.75-1-2.75-6.26-8.28-6.26-2.75 0-6.99 1.26-10.25 5.52zm52.32 37.55c0 41.3-29.55 72.1-69.1 72.1-40.29 0-68.34-29.29-68.34-71.86 0-41.29 29.53-72.09 69.1-72.09 40.3 0 68.34 29.29 68.34 71.85zm-150.96-.24c0 48.3 35.31 84.34 82.37 84.34 48.07 0 82.11-34.79 82.11-83.61 0-48.31-35.31-84.35-82.37-84.35-48.07 0-82.11 34.8-82.11 83.62" fill="#f46e16"/></g></symbol><symbol viewBox="0 0 100 100" id="facebook"><path d="M38.078 22.43v12.392H29v15.152h9.078V95h18.65V49.975H69.24s1.172-7.265 1.74-15.21H56.797v-10.36c0-1.547 2.033-3.63 4.043-3.63H71V5H57.186c-19.57 0-19.108 15.167-19.108 17.43z"/></symbol><symbol viewBox="0 0 56.693 56.693" id="instagram"><path d="M43.414 4.83H13c-5.283 0-9.58 4.298-9.58 9.58V44.827c0 5.283 4.297 9.58 9.58 9.58h30.415c5.283 0 9.58-4.297 9.58-9.58V14.41c0-5.283-4.298-9.58-9.58-9.58zm2.748 5.714l1.096-.004v8.403l-8.375.027-.03-8.402 7.31-.024zM21.132 24.53c1.587-2.197 4.163-3.638 7.075-3.638s5.488 1.44 7.074 3.638a8.677 8.677 0 0 1 1.653 5.088c0 4.81-3.918 8.725-8.727 8.725-4.812 0-8.726-3.914-8.726-8.725 0-1.9.618-3.654 1.65-5.088zm27.032 20.295c0 2.62-2.13 4.75-4.75 4.75H13c-2.62 0-4.75-2.13-4.75-4.75V24.53h7.4a13.483 13.483 0 0 0-1 5.088c0 7.473 6.08 13.557 13.557 13.557 7.475 0 13.555-6.084 13.555-13.557 0-1.8-.36-3.516-1-5.088h7.402v20.295z"/></symbol><symbol viewBox="0 0 244.434 84.832" id="logo"><defs><clipPath id="fa"><path d="M0 0h120v84.832H0zm0 0"/></clipPath><clipPath id="fb"><path d="M77 0h75v84.832H77zm0 0"/></clipPath><clipPath id="fc"><path d="M159 0h85.434v84.832H159zm0 0"/></clipPath></defs><g clip-path="url(#fa)"><path d="M104.402 0L58.48 68.887h-.113V0L46.04 18.664 12.667 68.887h-.34V0H0v84.832h15.156L46.04 40.27v44.562h15.15L119.677 0zm0 0"/></g><g clip-path="url(#fb)"><path d="M136.074.12L77.82 84.833h15.157L138.79 16.06h.112V84.83h12.328V.122zm0 0"/></g><g clip-path="url(#fc)"><path d="M244.434 42.645c0 5.507-1 10.687-3 15.554-1.996 4.86-4.77 9.14-8.31 12.835l9.728 13.797h-13.575l-4.632-6.672-2.153-3.055-4.187-5.882a42.122 42.122 0 0 0 4.355-3.504 22.125 22.125 0 0 0 3.676-4.41c1.512-2.037 2.867-4.564 4.07-7.583 1.285-3.614 1.922-7.274 1.922-10.973 0-4.367-.754-8.48-2.258-12.328-1.507-3.844-3.62-7.22-6.336-10.12-2.71-2.904-5.937-5.204-9.668-6.9-3.738-1.7-7.824-2.543-12.277-2.543-6.407 0-12.024 1.617-16.852 4.86-4.83 3.242-8.485 7.804-10.973 13.687a36.187 36.187 0 0 0-1.98 6.28 31.794 31.794 0 0 0-.735 6.84c0 2.19.246 4.392.734 6.618a43.546 43.546 0 0 0 1.98 6.504c2.563 5.805 6.24 10.31 11.032 13.516 4.785 3.207 10.387 4.81 16.793 4.81 4.222 0 7.995-.716 11.315-2.154l6.446 9.274c-5.43 2.492-11.347 3.734-17.76 3.734-5.88 0-11.403-1.113-16.567-3.336-5.168-2.22-9.692-5.258-13.578-9.105-3.883-3.847-6.938-8.33-9.16-13.46-2.223-5.125-3.337-10.594-3.337-16.4 0-5.956 1.114-11.518 3.336-16.682 2.223-5.168 5.262-9.672 9.106-13.52 3.847-3.844 8.37-6.863 13.574-9.047C190.367 1.095 195.91 0 201.79 0c5.956 0 11.538 1.113 16.74 3.336 5.204 2.23 9.728 5.258 13.58 9.11 3.843 3.843 6.855 8.35 9.046 13.515 2.188 5.165 3.278 10.724 3.278 16.685"/></g><path d="M197.176 37.22h1.43v9.24h-1.555v-7.476l-2.17 1.4-.716-1.16zm0 0M202.945 42.375c.016 1.625.49 2.883 1.848 2.883 1.105 0 1.71-.617 1.71-1.723 0-1.05-.616-1.566-1.667-1.566-.883 0-1.89.405-1.89.405m4.69-3.758s-1.36-.195-2.534-.195c-1.415 0-2.13.996-2.14 2.605 0 .016 1.186-.433 2.015-.433 2.058 0 3.136.926 3.136 2.94 0 2.048-1.246 3.083-3.32 3.083-2.395 0-3.445-1.808-3.445-4.777 0-3.445 1.457-4.778 3.754-4.778 1.175 0 2.675.336 2.675.336zm0 0"/></symbol><symbol viewBox="0 0 297.4 297.2" id="mtl-food"><g stroke="#00DAF2" stroke-linecap="round" stroke-linejoin="round" stroke-miterlimit="10"><path stroke-width="4.923" d="M147.1 278l6.9-75.3c-6.7-.5-21.5-2.5-36.4-12.9-17.4-12.1-24.3-28.3-26.7-34.5h25.9c2.9 4.7 8.6 11.9 18.1 15.8 5.7 2.4 10.4 2.6 17.9 2.9 10.7.5 16.6.7 22.5-2.9 6.7-4.1 9.8-11.1 11.2-15.8h20l-14.1 48.8c.6 24.6 1.3 49.2 1.9 73.9"/><path stroke-width="5" d="M253.7 153H43.6c-3.9 0-7.2-3.2-7.2-7.2v-3.4c0-3.9 3.2-7.2 7.2-7.2h210.1c3.9 0 7.2 3.2 7.2 7.2v3.4c0 4-3.2 7.2-7.2 7.2zM52.6 135.2c0-53.1 43-96.1 96.1-96.1s96.1 43 96.1 96.1M76.4 124.1c0-35 28.4-63.4 63.4-63.4"/><path stroke-width="5" d="M132.1 39.1c0-9.8 8-17.8 17.8-17.8s17.8 8 17.8 17.8"/></g></symbol><symbol viewBox="0 0 297.4 297.2" id="mtl-hotel"><path stroke="#00DAF2" stroke-width="5" stroke-linejoin="round" stroke-miterlimit="10" d="M45.5 140.3h-4.9c-6.6 0-12 5.4-12 12v114.5c0 6.6 5.4 12 12 12h4.9c6.6 0 12-5.4 12-12V152.3c0-6.6-5.4-12-12-12zM258 210h-4.9c-6.6 0-12 5.4-12 12v44.9c0 6.6 5.4 12 12 12h4.9c6.6 0 12-5.4 12-12V222c0-6.6-5.4-12-12-12z"/><path stroke="#00DAF2" stroke-width="4.865" stroke-linejoin="round" stroke-miterlimit="10" d="M219.5 257H78.8c-6.6 0-12-5.4-12-12v-24.6c0-6.6 5.4-12 12-12h140.7c6.6 0 12 5.4 12 12V245c0 6.6-5.4 12-12 12z"/><path stroke="#00DAF2" stroke-width="5" stroke-linejoin="round" stroke-miterlimit="10" d="M66.8 159.9c23 0 40.9 18.6 40.9 40.6H66.8v-40.6zM194.8 21.3c-11.7 0-22.6 3.1-32 8.5 19.3 11.1 32.3 31.9 32.3 55.8s-13 44.7-32.3 55.8c9.4 5.4 20.3 8.5 32 8.5 35.5 0 64.3-28.8 64.3-64.3s-28.7-64.3-64.3-64.3zM171.3 56.5h-143M180.3 72.5h-63M28.3 99.5h152M144.3 117.5h-53M144.3 134.5h-18"/></symbol><symbol viewBox="0 0 297.4 297.2" id="mtl-ticket"><path stroke="#00DAF2" stroke-width="5" stroke-linejoin="round" stroke-miterlimit="10" d="M270.5 243.4V56.6c-21 0-36.4-15.9-36.4-35.9H63.3c0 20-16.8 35.9-36.8 35.9v186.8c20 0 36.8 16.3 36.8 37.3h170.8c0-21 15.4-37.3 36.4-37.3zM44 71.7h210M44 226.7h210"/><g stroke="#00DAF2" stroke-width="5" stroke-linejoin="round"><path d="M252.7 201.7v6h-6"/><path stroke-dasharray="12.25,5.1042" d="M241.6 207.7H53.2"/><path d="M50.7 207.7h-6v-6"/><path stroke-dasharray="11.8131,4.9221" d="M44.7 196.7V98.8"/><path d="M44.7 96.3v-6h6"/><path stroke-dasharray="12.25,5.1042" d="M55.8 90.3h188.3"/><path d="M246.7 90.3h6v6"/><path stroke-dasharray="11.8131,4.9221" d="M252.7 101.3v97.9"/></g></symbol><symbol viewBox="0 0 297.4 297.2" id="mtl-transport"><path d="M254.6 24.4c5.5 0 9.9 4.5 9.9 9.9V248c0 5.5-4.5 9.9-9.9 9.9h-211c-5.5 0-9.9-4.5-9.9-9.9V34.4c0-5.5 4.5-9.9 9.9-9.9h211m0-4.9h-211c-8.1 0-14.7 6.6-14.7 14.7V248c0 8.1 6.6 14.7 14.7 14.7h211c8.1 0 14.7-6.6 14.7-14.7V34.4c.1-8.2-6.5-14.8-14.7-14.8z"/><g stroke="#00DAF2" stroke-width="4.441" stroke-linejoin="round" stroke-miterlimit="10"><path d="M53.9 261.2h27v16.4h-27zM217.5 261.2h27v16.4h-27z"/></g><g stroke="#00DAF2" stroke-linejoin="round" stroke-miterlimit="10"><path stroke-width="4.836" d="M33.5 209.6H113v22H33.5z"/><path stroke-width="5" d="M91.5 210v22"/><g><path stroke-width="4.907" d="M185 209.6h79.8v22H185z"/><path stroke-width="5" d="M207.5 210v22"/></g></g><path stroke="#00DAF2" stroke-width="5" stroke-linejoin="round" stroke-miterlimit="10" d="M113.5 232v15.5h72V232M31 37.5h234M265 196.5H34M57.1 196.1l83-159M147.1 196.1l83-159M168.1 196.1l83-159M30.8 126.1h-.5c-6.6 0-12-5.4-12-12V67.6c0-6.6 5.4-12 12-12h.5c6.6 0 12 5.4 12 12v46.5c0 6.6-5.4 12-12 12zM267.1 126.1h-.5c-6.6 0-12-5.4-12-12V67.6c0-6.6 5.4-12 12-12h.5c6.6 0 12 5.4 12 12v46.5c0 6.6-5.4 12-12 12zM122 224.5h54M176 237.5h-54"/></symbol><symbol viewBox="0 0 100 100" id="twitter"><path d="M84.803 46.564c5.055-.417 8.483-2.715 9.803-5.833-1.824 1.12-7.484 2.342-10.61 1.18a38.64 38.64 0 0 0-.492-2.063c-2.382-8.746-10.537-15.792-19.082-14.94.69-.28 1.392-.54 2.092-.773.94-.337 6.46-1.235 5.59-3.183-.733-1.712-7.475 1.296-8.744 1.69 1.675-.63 4.447-1.715 4.743-3.64-2.567.35-5.087 1.565-7.034 3.33.702-.757 1.235-1.68 1.348-2.672-6.848 4.375-10.848 13.195-14.085 21.75-2.542-2.463-4.795-4.403-6.816-5.48-5.67-3.04-12.45-6.213-23.09-10.164-.328 3.52 1.74 8.203 7.7 11.316-1.292-.173-3.653.213-5.54.665.768 4.034 3.28 7.357 10.078 8.964-3.107.204-4.713.91-6.168 2.435 1.415 2.805 4.868 6.107 11.08 5.43-6.906 2.976-2.816 8.49 2.804 7.666-9.586 9.903-24.7 9.176-33.38.894 22.66 30.88 71.92 18.262 79.262-11.48 5.5.046 8.733-1.906 10.738-4.058-3.17.538-7.76-.018-10.197-1.032z"/></symbol></svg>