<?xml version="1.0" encoding="UTF-8" standalone="no"?>
<svg
   xmlns:dc="http://purl.org/dc/elements/1.1/"
   xmlns:cc="http://creativecommons.org/ns#"
   xmlns:rdf="http://www.w3.org/1999/02/22-rdf-syntax-ns#"
   xmlns:svg="http://www.w3.org/2000/svg"
   xmlns="http://www.w3.org/2000/svg"
   viewBox="0 0 591.96002 179.16"
   height="179.16"
   width="591.96002"
   xml:space="preserve"
   id="svg2"
   version="1.1"><metadata
     id="metadata8"><rdf:RDF><cc:Work
         rdf:about=""><dc:format>image/svg+xml</dc:format><dc:type
           rdf:resource="http://purl.org/dc/dcmitype/StillImage" /></cc:Work></rdf:RDF></metadata><defs
     id="defs6"><clipPath
       id="clipPath20"
       clipPathUnits="userSpaceOnUse"><path
         id="path18"
         d="M 0,1343.67 V 0 h 4439.73 v 1343.67 z" /></clipPath></defs><g
     transform="matrix(1.3333333,0,0,-1.3333333,0,179.16)"
     id="g10"><g
       transform="scale(0.1)"
       id="g12"><g
         id="g14"><g
           clip-path="url(#clipPath20)"
           id="g16"><path
             id="path22"
             style="fill:#ffffff;fill-opacity:1;fill-rule:nonzero;stroke:none"
             d="M 161.539,43.3398 C 103.508,43.8594 40.0938,107.512 40.0938,165.5 L 40,1185.48 c 0,57.68 63.148,121 120.941,121.52 L 4032.5,1152.8 c 65.59,-2.6 117.36,-54.95 117.36,-116.68 V 314.18 c 0,-61.649 -51.78,-114.008 -117.38,-116.711 L 161.539,43.3398" /><path
             id="path24"
             style="fill:#f46e16;fill-opacity:1;fill-rule:nonzero;stroke:none"
             d="m 3825.15,730.016 c -58.76,0 -107.23,-40.496 -130.22,-93.727 20.62,-1.57 38.91,-2.367 55.58,-2.367 108.02,0 138.2,24.605 138.2,54.805 0,20.632 -21.45,41.289 -63.56,41.289 z M 2510.84,716.508 c -41.28,0 -78.61,-24.602 -102.44,-60.344 l -11.94,-55.621 c -11.9,-61.922 21.47,-113.547 87.39,-113.547 70.67,0 109.59,68.289 109.59,138.184 0,56.379 -35.73,91.328 -82.6,91.328 z M 3760.02,564.801 c -23.81,0 -50.02,1.586 -79.41,3.203 v -2.414 c 0,-53.981 33.36,-87.352 94.5,-87.352 51.62,0 88.97,23.055 114.39,56.422 1.57,2.375 47.64,-5.609 47.64,-42.121 0,-20.633 -6.33,-31.766 -21.44,-47.644 -29.39,-28.594 -75.46,-46.063 -142.16,-46.063 -127.07,0 -187.43,69.883 -187.43,165.188 0,140.566 108.02,241.445 243.82,241.445 98.47,0 153.28,-46.063 153.28,-113.559 0,-79.449 -50.82,-127.105 -223.19,-127.105 z M 3532.09,708.57 h -72.32 l -34.13,-158.847 c -10.33,-46.848 5.58,-66.688 36.52,-66.688 19.88,0 37.35,10.317 47.65,19.84 3.18,2.379 18.29,-10.336 18.29,-34.16 0,-16.672 -6.36,-30.969 -19.08,-43.684 -17.45,-17.465 -45.26,-27.011 -82.59,-27.011 -88.94,0 -129.47,53.23 -109.6,146.957 l 34.15,163.593 h -19.06 c -25.42,0 -40.49,11.118 -40.49,29.387 0,11.117 4.74,34.961 15.86,46.883 7.96,7.129 16.69,11.098 38.92,11.098 h 23.03 l 4.78,22.214 c 11.12,57.215 34.12,81.036 83.38,81.036 23.86,0 42.11,-9.524 41.31,-13.497 l -19.05,-89.753 h 65.1 c 27.03,0 42.11,-11.911 42.11,-29.411 0,-11.105 -4.76,-35.722 -16.67,-46.839 -7.19,-7.161 -16.71,-11.118 -38.11,-11.118 z m -314.87,146.594 c -39.72,0 -61.94,19.871 -61.94,48.469 0,38.133 26.18,65.133 65.13,65.133 39.71,0 61.93,-19.875 61.93,-48.45 0,-37.328 -26.19,-65.152 -65.12,-65.152 z m 19.4,-110.059 -51.63,-240.644 c -8.76,-42.895 -1.6,-59.566 30.96,-64.316 0.79,-0.793 -5.56,-39.727 -65.13,-39.727 -72.27,0 -90.53,44.477 -77.05,107.187 l 50.83,237.5 c 8.77,40.528 23.06,53.989 51.63,53.989 h 11.92 c 30.18,0 57.19,-11.879 48.47,-53.989 z m -218.47,-65.132 c -11.1,11.933 -26.97,23.031 -53.99,23.031 -50.04,0 -81.79,-55.574 -99.27,-137.414 l -22.26,-107.192 c -8.73,-39.703 -22.98,-53.23 -51.63,-53.23 h -11.88 c -30.19,0 -57.19,11.922 -48.46,53.23 l 70.67,333.571 c 0.82,2.394 13.52,7.125 31,7.125 31.75,0 62.73,-17.453 61.95,-68.289 23.83,46.843 59.53,74.66 104.82,74.66 38.92,0 69.1,-22.242 69.1,-54.785 0,-54.825 -48.42,-72.278 -50.05,-70.707 z M 2499.74,398.832 c -57.21,0 -107.25,27.785 -131.06,75.449 -15.09,-50.043 -39.69,-69.113 -83.37,-69.113 -21.45,0 -39.74,9.547 -38.95,13.527 l 104.53,495.243 c 8.73,40.531 23.03,54.011 51.63,54.011 h 12.71 c 29.36,0 57.19,-12.691 47.63,-54.011 l -36.2,-172.805 c 28.6,39.715 69.87,64.332 123.1,64.332 83.39,0 152.47,-59.57 152.47,-165.977 0,-122.316 -80.17,-240.656 -202.49,-240.656 z m -294.7,309.738 h -72.28 l -34.14,-158.847 c -10.32,-46.848 5.57,-66.688 36.52,-66.688 19.88,0 37.33,10.317 47.67,19.84 3.16,2.379 18.25,-10.336 18.25,-34.16 0,-16.672 -6.35,-30.969 -19.04,-43.684 -17.47,-17.465 -45.3,-27.011 -82.61,-27.011 -88.95,0 -129.44,53.23 -109.58,146.957 l 34.13,163.593 h -19.04 c -25.44,0 -40.53,11.118 -40.53,29.387 0,11.117 4.79,34.961 15.88,46.883 7.95,7.129 16.69,11.098 38.95,11.098 h 23.02 l 4.76,22.214 c 11.12,57.215 34.15,81.036 83.37,81.036 23.86,0 42.1,-9.524 41.33,-13.497 l -19.06,-89.753 h 65.13 c 26.99,0 42.1,-11.911 42.1,-29.411 0,-11.105 -4.79,-35.722 -16.71,-46.839 -7.15,-7.161 -16.67,-11.118 -38.12,-11.118 z M 1896.06,446.477 c 1.6,0 -6.34,-46.059 -67.5,-46.059 -52.41,0 -77.04,26.988 -77.04,69.113 0,22.215 7.13,51.602 19.06,95.27 10.33,36.535 17.5,66.758 17.5,83.422 0,39.691 -22.28,63.511 -62.76,63.511 -38.91,0 -64.34,-18.246 -88.95,-56.386 l -41.31,-196.95 c -8.73,-39.703 -23.03,-53.23 -51.62,-53.23 h -11.89 c -30.21,0 -57.2,11.922 -48.45,53.23 l 70.67,333.571 c 0.79,2.394 13.5,7.125 30.98,7.125 31.75,0 62.72,-17.453 61.93,-69.078 30.97,46.851 76.25,75.449 133.42,75.449 79.43,0 125.51,-51.625 125.51,-125.492 0,-27.805 -9.55,-65.911 -23.06,-113.586 -10.3,-38.899 -18.27,-69.867 -18.27,-85.75 0,-22.239 10.33,-30.992 31.78,-34.16 z m -652.08,118.324 c -23.84,0 -50.03,1.586 -79.44,3.203 v -2.414 c 0,-53.981 33.38,-87.352 94.52,-87.352 51.62,0 88.96,23.055 114.36,56.422 1.58,2.375 47.65,-5.609 47.65,-42.121 0,-20.633 -6.34,-31.766 -21.42,-47.644 -29.41,-28.594 -75.47,-46.063 -142.17,-46.063 -127.08,0 -187.45,69.883 -187.45,165.188 0,140.566 108.03,241.445 243.83,241.445 98.48,0 153.28,-46.063 153.28,-113.559 0,-79.449 -50.83,-127.105 -223.16,-127.105 z M 1031.43,689.52 867.824,437.746 c -18.265,-28.598 -48.445,-33.367 -69.89,-33.367 -28.598,0 -57.973,10.336 -61.946,41.309 l -31.761,220.781 c -7.957,60.367 -18.016,84.054 -49.786,86.422 -1.589,0 12.336,49.406 61.692,49.406 23.828,0 40.508,-6.359 55.594,-21.449 21.449,-21.446 30.984,-56.399 34.953,-109.594 l 14.289,-144.559 157.246,274.821 c 0.789,1.57 77.055,-2.422 77.055,-54.828 0,-17.454 -6.37,-30.969 -23.84,-57.168 z m -485.379,52.261 c 30.172,0 46.058,-12.719 46.058,-32.547 0,-11.922 -5.547,-38.129 -17.476,-50.832 -7.949,-7.929 -18.27,-12.711 -42.094,-12.711 H 363.035 L 334.984,510.027 h 231.911 c 32.578,0 49.234,-12.715 49.234,-34.164 0,-13.504 -6.336,-41.285 -19.035,-54.789 -8.746,-8.758 -19.891,-12.715 -45.282,-12.715 H 271.441 c -48.453,0 -69.875,24.661 -58.765,74.676 l 89.531,425.36 c 8.734,41.289 34.148,60.347 73.051,60.347 h 283.551 c 32.562,0 50.039,-12.703 50.039,-34.918 0,-12.715 -7.16,-41.289 -19.879,-54.012 -8.727,-9.535 -19.043,-12.714 -45.262,-12.714 H 411.012 L 383.695,741.781 Z M 4035.67,1189.44 161.656,1343.67 C 81.0977,1343.67 0,1261.68 0,1182.14 L 0.09375,162.16 C 0.09375,81.0781 81.7148,0 162.254,0 L 4035.7,154.172 c 86.77,3.566 157.32,73.84 157.32,156.68 v 721.938 c 0,82.88 -70.55,153.2 -157.35,156.65 z M 1309.1,730.016 c -58.77,0 -107.21,-40.496 -130.25,-93.727 20.66,-1.57 38.9,-2.367 55.59,-2.367 108.03,0 138.18,24.605 138.18,54.805 0,20.632 -21.43,41.289 -63.52,41.289" /><path
             id="path26"
             style="fill:#f46e16;fill-opacity:1;fill-rule:nonzero;stroke:none"
             d="m 4340.85,1108 h 20.01 c 11.77,0 18.29,5.5 18.29,14.27 0,9.76 -6.77,14.27 -19.04,14.27 h -19.26 z m 33.04,-40.06 -22.04,27.54 h -10.76 v -26.05 c 0,-4.24 -2.26,-7.01 -6.5,-7.01 h -2.02 c -4.24,0 -6.5,3.02 -6.5,8.01 v 70.36 c 0,5.24 3.26,8.5 8.01,8.5 h 26.54 c 21.52,0 33.55,-8.76 33.55,-26.78 0,-15.02 -9.52,-24.54 -26.05,-26.03 l 24.3,-27.8 c 0.75,-1 -2.75,-6.26 -8.28,-6.26 -2.75,0 -6.99,1.26 -10.25,5.52 z m 52.32,37.55 c 0,41.3 -29.55,72.1 -69.1,72.1 -40.29,0 -68.34,-29.29 -68.34,-71.86 0,-41.29 29.53,-72.09 69.1,-72.09 40.3,0 68.34,29.29 68.34,71.85 z m -150.96,-0.24 c 0,48.3 35.31,84.34 82.37,84.34 48.07,0 82.11,-34.79 82.11,-83.61 0,-48.31 -35.31,-84.35 -82.37,-84.35 -48.07,0 -82.11,34.8 -82.11,83.62" /></g></g></g></g></svg>