<?xml version="1.0" encoding="utf-8"?>
<!-- Generator: Adobe Illustrator 19.1.0, SVG Export Plug-In . SVG Version: 6.00 Build 0)  -->
<svg version="1.1" id="Calque_1" xmlns="http://www.w3.org/2000/svg" xmlns:xlink="http://www.w3.org/1999/xlink" x="0px" y="0px"
	 viewBox="0 0 297.4 297.2" enable-background="new 0 0 297.4 297.2" xml:space="preserve">
<path fill="none" stroke="#00DAF2" stroke-width="5" stroke-linejoin="round" stroke-miterlimit="10" d="M45.5,140.3h-4.9
	c-6.6,0-12,5.4-12,12v114.5c0,6.6,5.4,12,12,12h4.9c6.6,0,12-5.4,12-12V152.3C57.5,145.7,52.1,140.3,45.5,140.3z"/>
<path fill="none" stroke="#00DAF2" stroke-width="5" stroke-linejoin="round" stroke-miterlimit="10" d="M258,210h-4.9
	c-6.6,0-12,5.4-12,12v44.9c0,6.6,5.4,12,12,12h4.9c6.6,0,12-5.4,12-12V222C270,215.4,264.6,210,258,210z"/>
<path fill="none" stroke="#00DAF2" stroke-width="4.8647" stroke-linejoin="round" stroke-miterlimit="10" d="M219.5,257H78.8
	c-6.6,0-12-5.4-12-12v-24.6c0-6.6,5.4-12,12-12h140.7c6.6,0,12,5.4,12,12V245C231.5,251.6,226.1,257,219.5,257z"/>
<path fill="none" stroke="#00DAF2" stroke-width="5" stroke-linejoin="round" stroke-miterlimit="10" d="M66.8,159.9
	c23,0,40.9,18.6,40.9,40.6H66.8V159.9z"/>
<path fill="none" stroke="#00DAF2" stroke-width="5" stroke-linejoin="round" stroke-miterlimit="10" d="M194.8,21.3
	c-11.7,0-22.6,3.1-32,8.5c19.3,11.1,32.3,31.9,32.3,55.8s-13,44.7-32.3,55.8c9.4,5.4,20.3,8.5,32,8.5c35.5,0,64.3-28.8,64.3-64.3
	C259.1,50.1,230.4,21.3,194.8,21.3z"/>
<line fill="none" stroke="#00DAF2" stroke-width="5" stroke-linejoin="round" stroke-miterlimit="10" x1="171.3" y1="56.5" x2="28.3" y2="56.5"/>
<line fill="none" stroke="#00DAF2" stroke-width="5" stroke-linejoin="round" stroke-miterlimit="10" x1="180.3" y1="72.5" x2="117.3" y2="72.5"/>
<line fill="none" stroke="#00DAF2" stroke-width="5" stroke-linejoin="round" stroke-miterlimit="10" x1="28.3" y1="99.5" x2="180.3" y2="99.5"/>
<line fill="none" stroke="#00DAF2" stroke-width="5" stroke-linejoin="round" stroke-miterlimit="10" x1="144.3" y1="117.5" x2="91.3" y2="117.5"/>
<line fill="none" stroke="#00DAF2" stroke-width="5" stroke-linejoin="round" stroke-miterlimit="10" x1="144.3" y1="134.5" x2="126.3" y2="134.5"/>
</svg>
