<?xml version="1.0" encoding="utf-8"?>
<!-- Generator: Adobe Illustrator 19.1.0, SVG Export Plug-In . SVG Version: 6.00 Build 0)  -->
<svg version="1.1" id="Calque_1" xmlns="http://www.w3.org/2000/svg" xmlns:xlink="http://www.w3.org/1999/xlink" x="0px" y="0px"
	 viewBox="0 0 297.4 297.2" enable-background="new 0 0 297.4 297.2" xml:space="preserve">
<g>
	<g>
		<path fill="#00DAF2" d="M254.6,24.4c5.5,0,9.9,4.5,9.9,9.9v213.7c0,5.5-4.5,9.9-9.9,9.9h-211c-5.5,0-9.9-4.5-9.9-9.9V34.4
			c0-5.5,4.5-9.9,9.9-9.9H254.6 M254.6,19.6h-211c-8.1,0-14.7,6.6-14.7,14.7v213.7c0,8.1,6.6,14.7,14.7,14.7h211
			c8.1,0,14.7-6.6,14.7-14.7V34.4C269.4,26.2,262.8,19.6,254.6,19.6L254.6,19.6z"/>
	</g>
	<g>
		
			<rect x="53.9" y="261.2" fill="#FFFFFF" stroke="#00DAF2" stroke-width="4.4407" stroke-linejoin="round" stroke-miterlimit="10" width="27" height="16.4"/>
		
			<rect x="217.5" y="261.2" fill="#FFFFFF" stroke="#00DAF2" stroke-width="4.4407" stroke-linejoin="round" stroke-miterlimit="10" width="27" height="16.4"/>
	</g>
	<g>
		<g>
			
				<rect x="33.5" y="209.6" fill="none" stroke="#00DAF2" stroke-width="4.8364" stroke-linejoin="round" stroke-miterlimit="10" width="79.5" height="22"/>
			
				<line fill="none" stroke="#00DAF2" stroke-width="5" stroke-linejoin="round" stroke-miterlimit="10" x1="91.5" y1="210" x2="91.5" y2="232"/>
		</g>
		<g>
			
				<rect x="185" y="209.6" fill="none" stroke="#00DAF2" stroke-width="4.9068" stroke-linejoin="round" stroke-miterlimit="10" width="79.8" height="22"/>
			
				<line fill="none" stroke="#00DAF2" stroke-width="5" stroke-linejoin="round" stroke-miterlimit="10" x1="207.5" y1="210" x2="207.5" y2="232"/>
		</g>
	</g>
	<polyline fill="none" stroke="#00DAF2" stroke-width="5" stroke-linejoin="round" stroke-miterlimit="10" points="113.5,232 
		113.5,247.5 185.5,247.5 185.5,232 	"/>
	
		<line fill="none" stroke="#00DAF2" stroke-width="5" stroke-linejoin="round" stroke-miterlimit="10" x1="31" y1="37.5" x2="265" y2="37.5"/>
	
		<line fill="none" stroke="#00DAF2" stroke-width="5" stroke-linejoin="round" stroke-miterlimit="10" x1="265" y1="196.5" x2="34" y2="196.5"/>
	
		<line fill="none" stroke="#00DAF2" stroke-width="5" stroke-linejoin="round" stroke-miterlimit="10" x1="57.1" y1="196.1" x2="140.1" y2="37.1"/>
	
		<line fill="none" stroke="#00DAF2" stroke-width="5" stroke-linejoin="round" stroke-miterlimit="10" x1="147.1" y1="196.1" x2="230.1" y2="37.1"/>
	
		<line fill="none" stroke="#00DAF2" stroke-width="5" stroke-linejoin="round" stroke-miterlimit="10" x1="168.1" y1="196.1" x2="251.1" y2="37.1"/>
	<path fill="none" stroke="#00DAF2" stroke-width="5" stroke-linejoin="round" stroke-miterlimit="10" d="M30.8,126.1h-0.5
		c-6.6,0-12-5.4-12-12V67.6c0-6.6,5.4-12,12-12h0.5c6.6,0,12,5.4,12,12v46.5C42.8,120.7,37.4,126.1,30.8,126.1z"/>
	<path fill="none" stroke="#00DAF2" stroke-width="5" stroke-linejoin="round" stroke-miterlimit="10" d="M267.1,126.1h-0.5
		c-6.6,0-12-5.4-12-12V67.6c0-6.6,5.4-12,12-12h0.5c6.6,0,12,5.4,12,12v46.5C279.1,120.7,273.7,126.1,267.1,126.1z"/>
	
		<line fill="none" stroke="#00DAF2" stroke-width="5" stroke-linejoin="round" stroke-miterlimit="10" x1="122" y1="224.5" x2="176" y2="224.5"/>
	
		<line fill="none" stroke="#00DAF2" stroke-width="5" stroke-linejoin="round" stroke-miterlimit="10" x1="176" y1="237.5" x2="122" y2="237.5"/>
</g>
</svg>
