<?xml version="1.0" encoding="UTF-8"?>
<svg xmlns="http://www.w3.org/2000/svg" xmlns:xlink="http://www.w3.org/1999/xlink" width="244.434pt" height="84.832pt" viewBox="0 0 244.434 84.832" version="1.1">
<defs>
<clipPath id="clip1">
  <path d="M 0 0 L 120 0 L 120 84.832031 L 0 84.832031 Z M 0 0 "/>
</clipPath>
<clipPath id="clip2">
  <path d="M 77 0 L 152 0 L 152 84.832031 L 77 84.832031 Z M 77 0 "/>
</clipPath>
<clipPath id="clip3">
  <path d="M 159 0 L 244.433594 0 L 244.433594 84.832031 L 159 84.832031 Z M 159 0 "/>
</clipPath>
</defs>
<g id="surface1">
<g clip-path="url(#clip1)" clip-rule="nonzero">
<path style=" stroke:none;fill-rule:nonzero;" d="M 104.402344 0 L 58.480469 68.886719 L 58.367188 68.886719 L 58.367188 0 L 46.039062 18.664062 L 12.667969 68.886719 L 12.328125 68.886719 L 12.328125 0 L 0 0 L 0 84.832031 L 15.15625 84.832031 L 46.039062 40.269531 L 46.039062 84.832031 L 61.191406 84.832031 L 119.675781 0 Z M 104.402344 0 "/>
</g>
<g clip-path="url(#clip2)" clip-rule="nonzero">
<path style=" stroke:none;fill-rule:nonzero;" d="M 136.074219 0.121094 L 77.820312 84.832031 L 92.976562 84.832031 L 138.789062 16.058594 L 138.902344 16.058594 L 138.902344 84.832031 L 151.230469 84.832031 L 151.230469 0.121094 Z M 136.074219 0.121094 "/>
</g>
<g clip-path="url(#clip3)" clip-rule="nonzero">
<path style=" stroke:none;fill-rule:nonzero;" d="M 244.433594 42.644531 C 244.433594 48.152344 243.433594 53.332031 241.433594 58.199219 C 239.4375 63.058594 236.664062 67.339844 233.125 71.035156 L 242.851562 84.832031 L 229.277344 84.832031 L 224.644531 78.160156 L 222.492188 75.105469 L 218.304688 69.222656 C 219.8125 68.167969 221.265625 67 222.660156 65.71875 C 224.054688 64.433594 225.28125 62.964844 226.335938 61.308594 C 227.847656 59.273438 229.203125 56.746094 230.40625 53.726562 C 231.691406 50.113281 232.328125 46.453125 232.328125 42.753906 C 232.328125 38.386719 231.574219 34.273438 230.070312 30.425781 C 228.5625 26.582031 226.449219 23.207031 223.734375 20.304688 C 221.023438 17.402344 217.796875 15.101562 214.066406 13.40625 C 210.328125 11.707031 206.242188 10.863281 201.789062 10.863281 C 195.382812 10.863281 189.765625 12.480469 184.9375 15.722656 C 180.109375 18.964844 176.453125 23.527344 173.964844 29.410156 C 173.136719 31.375 172.476562 33.460938 171.984375 35.691406 C 171.496094 37.914062 171.25 40.195312 171.25 42.53125 C 171.25 44.71875 171.496094 46.921875 171.984375 49.148438 C 172.476562 51.375 173.136719 53.539062 173.964844 55.652344 C 176.527344 61.457031 180.203125 65.960938 184.996094 69.167969 C 189.78125 72.375 195.382812 73.976562 201.789062 73.976562 C 206.011719 73.976562 209.785156 73.261719 213.105469 71.824219 L 219.550781 81.097656 C 214.121094 83.589844 208.203125 84.832031 201.789062 84.832031 C 195.910156 84.832031 190.386719 83.71875 185.222656 81.496094 C 180.054688 79.277344 175.53125 76.238281 171.644531 72.390625 C 167.761719 68.542969 164.707031 64.058594 162.484375 58.929688 C 160.261719 53.804688 159.148438 48.335938 159.148438 42.53125 C 159.148438 36.574219 160.261719 31.011719 162.484375 25.847656 C 164.707031 20.679688 167.746094 16.175781 171.589844 12.328125 C 175.4375 8.484375 179.960938 5.464844 185.164062 3.28125 C 190.367188 1.09375 195.910156 0 201.789062 0 C 207.746094 0 213.328125 1.113281 218.53125 3.335938 C 223.734375 5.566406 228.257812 8.59375 232.109375 12.445312 C 235.953125 16.289062 238.964844 20.796875 241.15625 25.960938 C 243.34375 31.125 244.433594 36.683594 244.433594 42.644531 "/>
</g>
<path style=" stroke:none;fill-rule:nonzero;" d="M 197.175781 37.21875 L 198.605469 37.21875 L 198.605469 46.460938 L 197.050781 46.460938 L 197.050781 38.984375 L 194.878906 40.382812 L 194.164062 39.222656 Z M 197.175781 37.21875 "/>
<path style=" stroke:none;fill-rule:nonzero;" d="M 202.945312 42.375 C 202.960938 44 203.433594 45.257812 204.792969 45.257812 C 205.898438 45.257812 206.503906 44.640625 206.503906 43.535156 C 206.503906 42.484375 205.886719 41.96875 204.835938 41.96875 C 203.953125 41.96875 202.945312 42.375 202.945312 42.375 M 207.636719 38.617188 C 207.636719 38.617188 206.277344 38.421875 205.101562 38.421875 C 203.6875 38.421875 202.972656 39.417969 202.960938 41.027344 C 202.960938 41.042969 204.148438 40.59375 204.976562 40.59375 C 207.035156 40.59375 208.113281 41.519531 208.113281 43.535156 C 208.113281 45.582031 206.867188 46.617188 204.792969 46.617188 C 202.398438 46.617188 201.347656 44.808594 201.347656 41.839844 C 201.347656 38.394531 202.804688 37.0625 205.101562 37.0625 C 206.277344 37.0625 207.777344 37.398438 207.777344 37.398438 Z M 207.636719 38.617188 "/>
</g>
</svg>
