<?xml version="1.0" encoding="utf-8"?>
<!-- Generator: Adobe Illustrator 19.1.0, SVG Export Plug-In . SVG Version: 6.00 Build 0)  -->
<svg version="1.1" id="Calque_1" xmlns="http://www.w3.org/2000/svg" xmlns:xlink="http://www.w3.org/1999/xlink" x="0px" y="0px"
	 viewBox="0 0 297.4 297.2" enable-background="new 0 0 297.4 297.2" xml:space="preserve">
<path fill="#FFFFFF" stroke="#00DAF2" stroke-width="5" stroke-linejoin="round" stroke-miterlimit="10" d="M270.5,243.4V56.6
	c-21,0-36.4-15.9-36.4-35.9H63.3c0,20-16.8,35.9-36.8,35.9v186.8c20,0,36.8,16.3,36.8,37.3h170.8
	C234.1,259.7,249.5,243.4,270.5,243.4z"/>
<line fill="#FFFFFF" stroke="#00DAF2" stroke-width="5" stroke-linejoin="round" stroke-miterlimit="10" x1="44" y1="71.7" x2="254" y2="71.7"/>
<line fill="#FFFFFF" stroke="#00DAF2" stroke-width="5" stroke-linejoin="round" stroke-miterlimit="10" x1="44" y1="226.7" x2="254" y2="226.7"/>
<g>
	<g>
		<polyline fill="#FFFFFF" stroke="#00DAF2" stroke-width="5" stroke-linejoin="round" points="252.7,201.7 252.7,207.7 246.7,207.7
			"/>

			<line fill="#FFFFFF" stroke="#00DAF2" stroke-width="5" stroke-linejoin="round" stroke-dasharray="12.25,5.1042" x1="241.6" y1="207.7" x2="53.2" y2="207.7"/>
		<polyline fill="#FFFFFF" stroke="#00DAF2" stroke-width="5" stroke-linejoin="round" points="50.7,207.7 44.7,207.7 44.7,201.7 		"/>

			<line fill="#FFFFFF" stroke="#00DAF2" stroke-width="5" stroke-linejoin="round" stroke-dasharray="11.8131,4.9221" x1="44.7" y1="196.7" x2="44.7" y2="98.8"/>
		<polyline fill="#FFFFFF" stroke="#00DAF2" stroke-width="5" stroke-linejoin="round" points="44.7,96.3 44.7,90.3 50.7,90.3 		"/>

			<line fill="#FFFFFF" stroke="#00DAF2" stroke-width="5" stroke-linejoin="round" stroke-dasharray="12.25,5.1042" x1="55.8" y1="90.3" x2="244.1" y2="90.3"/>
		<polyline fill="#FFFFFF" stroke="#00DAF2" stroke-width="5" stroke-linejoin="round" points="246.7,90.3 252.7,90.3 252.7,96.3 		"/>

			<line fill="#FFFFFF" stroke="#00DAF2" stroke-width="5" stroke-linejoin="round" stroke-dasharray="11.8131,4.9221" x1="252.7" y1="101.3" x2="252.7" y2="199.2"/>
	</g>
</g>
</svg>
