<?xml version="1.0" encoding="utf-8"?>
<!-- Generator: Adobe Illustrator 19.1.0, SVG Export Plug-In . SVG Version: 6.00 Build 0)  -->
<svg version="1.1" id="Calque_1" xmlns="http://www.w3.org/2000/svg" xmlns:xlink="http://www.w3.org/1999/xlink" x="0px" y="0px"
	 viewBox="0 0 297.4 297.2" enable-background="new 0 0 297.4 297.2" xml:space="preserve">
<g>
	
		<path fill="none" stroke="#00DAF2" stroke-width="4.9232" stroke-linecap="round" stroke-linejoin="round" stroke-miterlimit="10" d="
		M147.1,278l6.9-75.3c-6.7-0.5-21.5-2.5-36.4-12.9c-17.4-12.1-24.3-28.3-26.7-34.5h25.9c2.9,4.7,8.6,11.9,18.1,15.8
		c5.7,2.4,10.4,2.6,17.9,2.9c10.7,0.5,16.6,0.7,22.5-2.9c6.7-4.1,9.8-11.1,11.2-15.8h20l-14.1,48.8c0.6,24.6,1.3,49.2,1.9,73.9"/>
	<path fill="none" stroke="#00DAF2" stroke-width="5" stroke-linecap="round" stroke-linejoin="round" stroke-miterlimit="10" d="
		M253.7,153H43.6c-3.9,0-7.2-3.2-7.2-7.2v-3.4c0-3.9,3.2-7.2,7.2-7.2h210.1c3.9,0,7.2,3.2,7.2,7.2v3.4
		C260.9,149.8,257.7,153,253.7,153z"/>
	<path fill="none" stroke="#00DAF2" stroke-width="5" stroke-linecap="round" stroke-linejoin="round" stroke-miterlimit="10" d="
		M52.6,135.2c0-53.1,43-96.1,96.1-96.1s96.1,43,96.1,96.1"/>
	<path fill="none" stroke="#00DAF2" stroke-width="5" stroke-linecap="round" stroke-linejoin="round" stroke-miterlimit="10" d="
		M76.4,124.1c0-35,28.4-63.4,63.4-63.4"/>
	<path fill="none" stroke="#00DAF2" stroke-width="5" stroke-linecap="round" stroke-linejoin="round" stroke-miterlimit="10" d="
		M132.1,39.1c0-9.8,8-17.8,17.8-17.8c9.8,0,17.8,8,17.8,17.8"/>
</g>
</svg>
